<svg width="414" height="456" viewBox="0 0 414 456" fill="none" xmlns="http://www.w3.org/2000/svg">
<path d="M312.277 310.758C307.716 302.854 301.3 296.179 293.583 291.309C285.866 286.439 277.08 283.519 267.983 282.803C258.886 282.087 249.751 283.596 241.367 287.199C232.983 290.802 225.602 296.391 219.861 303.483C217.644 306.263 214.831 308.509 211.629 310.056C208.428 311.603 204.92 312.412 201.365 312.422H201.151C197.547 312.402 193.992 311.594 190.734 310.053C187.476 308.513 184.594 306.278 182.293 303.505C168.766 287.594 156.633 270.55 146.026 252.561C135.751 234.355 127.065 215.298 120.063 195.601C118.805 192.173 118.321 188.51 118.645 184.873C118.97 181.236 120.095 177.716 121.941 174.566C123.73 171.477 126.194 168.832 129.15 166.83C132.105 164.828 135.475 163.519 139.007 163.003C147.998 161.543 156.5 157.92 163.781 152.447C171.062 146.973 176.905 139.813 180.806 131.582C184.708 123.351 186.552 114.295 186.179 105.194C185.806 96.0928 183.228 87.2183 178.666 79.3339L149.098 28.1339C144.84 20.7531 138.96 14.4364 131.903 9.66103C124.846 4.88563 116.796 1.77639 108.361 0.56818C99.9265 -0.640029 91.3273 0.0843854 83.2135 2.6867C75.0996 5.28902 67.6833 9.70119 61.5246 15.5899L51.4125 25.2539C27.3542 48.0004 10.731 77.486 3.72251 109.845C-3.286 142.203 -0.352675 175.925 12.1379 206.587C25.4513 239.727 41.0184 271.916 58.7299 302.929C77.0261 334.269 97.4771 364.3 119.935 392.806C135.525 412.515 155.377 428.437 178 439.377C200.623 450.317 225.43 455.992 250.559 455.974C266.791 455.978 282.933 453.562 298.453 448.806L310.634 445.051C318.693 442.546 326.085 438.259 332.262 432.509C338.439 426.758 343.242 419.69 346.316 411.83C349.389 403.97 350.654 395.519 350.017 387.104C349.38 378.688 346.856 370.524 342.634 363.217L312.277 310.758Z" fill="#4285F4"/>
<path d="M310.506 266.214C309.677 266.213 308.85 266.149 308.031 266.022C303.839 265.371 300.077 263.081 297.573 259.656C295.068 256.232 294.027 251.953 294.677 247.761C295.666 241.594 296.173 235.36 296.191 229.115C296.18 206.998 289.631 185.377 277.367 166.971C265.103 148.566 247.671 134.196 227.263 125.67C223.351 124.021 220.254 120.885 218.653 116.952C217.053 113.019 217.081 108.612 218.73 104.699C220.379 100.787 223.515 97.6897 227.448 96.0894C231.381 94.489 235.788 94.5166 239.701 96.1659C265.914 107.135 288.3 125.608 304.044 149.263C319.789 172.918 328.19 200.699 328.191 229.115C328.171 236.975 327.536 244.821 326.293 252.582C325.73 256.368 323.828 259.827 320.93 262.329C318.033 264.831 314.334 266.209 310.506 266.214Z" fill="#AFCBF9"/>
<path d="M394.559 280.102C393.658 280.108 392.758 280.029 391.871 279.867C387.691 279.157 383.964 276.817 381.508 273.362C379.052 269.906 378.068 265.616 378.772 261.435C380.589 250.757 381.51 239.946 381.525 229.115C381.594 190.121 370.071 151.985 348.419 119.554C326.768 87.1226 295.965 61.8585 259.925 46.9713C257.909 46.2172 256.066 45.0642 254.506 43.5812C252.946 42.0983 251.702 40.316 250.847 38.3409C249.992 36.3658 249.545 34.2385 249.531 32.0864C249.518 29.9343 249.938 27.8016 250.768 25.8158C251.598 23.8301 252.82 22.0322 254.361 20.5298C255.902 19.0273 257.73 17.8512 259.736 17.0718C261.742 16.2923 263.885 15.9256 266.036 15.9936C268.187 16.0615 270.302 16.5628 272.255 17.4673C314.133 34.7766 349.922 64.1423 375.075 101.834C400.228 139.526 413.611 183.844 413.525 229.158C413.514 241.777 412.436 254.373 410.303 266.811C409.665 270.526 407.735 273.897 404.855 276.328C401.975 278.76 398.329 280.096 394.559 280.102Z" fill="#AFCBF9"/>
</svg>
