<svg width="399" height="512" viewBox="0 0 399 512" fill="none" xmlns="http://www.w3.org/2000/svg">
<path d="M200.818 0.00508164C90.037 -0.776918 0 88.7961 0 199.393C0 244.387 14.904 285.887 40.022 319.251L169.006 496.515C184.02 517.161 214.782 517.161 229.796 496.515L358.78 319.251C383.592 286.29 398.448 245.389 398.802 201.042C399.681 91.2881 310.573 0.763082 200.818 0.00508164ZM199.401 309.099C138.818 309.099 89.707 259.988 89.707 199.393C89.707 138.811 138.818 89.7001 199.401 89.7001C259.984 89.7001 309.094 138.811 309.094 199.393C309.094 259.988 259.983 309.099 199.401 309.099Z" fill="url(#paint0_linear_567_3)"/>
<path d="M199.401 58.5841C121.63 58.5841 58.579 121.622 58.579 199.393C58.579 277.165 121.629 340.215 199.401 340.215C277.173 340.215 340.223 277.165 340.223 199.393C340.222 121.622 277.172 58.5841 199.401 58.5841ZM199.401 298.3C144.78 298.3 100.507 254.015 100.507 199.394C100.507 144.773 144.78 100.5 199.401 100.5C254.022 100.5 298.295 144.773 298.295 199.394C298.295 254.014 254.022 298.3 199.401 298.3Z" fill="url(#paint1_linear_567_3)"/>
<path d="M298.295 199.393C298.295 254.014 254.022 298.299 199.401 298.299C144.78 298.299 100.507 254.014 100.507 199.393C100.507 185.199 103.519 171.716 108.903 159.514H3.994C1.378 172.4 0 185.735 0 199.393C0 244.387 14.904 285.887 40.022 319.251L169.006 496.515C184.02 517.161 214.782 517.161 229.796 496.515L358.78 319.251C383.592 286.29 398.448 245.389 398.802 201.042C398.916 186.824 397.508 172.933 394.752 159.514H289.898C295.283 171.716 298.295 185.199 298.295 199.393Z" fill="url(#paint2_linear_567_3)"/>
<path d="M200.818 0.00505266C189.089 -0.0779473 177.597 0.863053 166.416 2.72305V106.155C176.735 102.505 187.831 100.499 199.401 100.499C254.022 100.499 298.295 144.772 298.295 199.393C298.295 254.014 254.022 298.299 199.401 298.299C187.831 298.299 176.735 296.293 166.416 292.642V492.955L169.006 496.514C184.02 517.16 214.782 517.16 229.796 496.514L358.78 319.25C383.592 286.289 398.448 245.388 398.802 201.041C399.681 91.288 310.573 0.763053 200.818 0.00505266Z" fill="url(#paint3_linear_567_3)"/>
<path d="M200.818 0.00505266C189.089 -0.0779473 177.597 0.863053 166.416 2.72305V106.155C176.735 102.505 187.831 100.499 199.401 100.499C254.022 100.499 298.295 144.772 298.295 199.393C298.295 254.014 254.022 298.299 199.401 298.299C187.831 298.299 176.735 296.293 166.416 292.642V492.955L169.006 496.514C184.02 517.16 214.782 517.16 229.796 496.514L358.78 319.25C383.592 286.289 398.448 245.388 398.802 201.041C399.681 91.288 310.573 0.763053 200.818 0.00505266Z" fill="url(#paint4_linear_567_3)"/>
<path d="M199.401 270.877C238.877 270.877 270.878 238.876 270.878 199.4C270.878 159.924 238.877 127.923 199.401 127.923C159.925 127.923 127.924 159.924 127.924 199.4C127.924 238.876 159.925 270.877 199.401 270.877Z" fill="url(#paint5_linear_567_3)"/>
<path d="M127.923 199.4C127.923 238.876 159.924 270.877 199.4 270.877C238.876 270.877 270.877 238.875 270.877 199.4C270.877 190.85 269.371 182.654 266.618 175.055H132.182C129.429 182.654 127.923 190.85 127.923 199.4Z" fill="url(#paint6_linear_567_3)"/>
<path d="M148.859 249.942C176.773 277.856 222.03 277.856 249.943 249.942C277.857 222.028 277.857 176.771 249.943 148.858C243.898 142.813 237.037 138.082 229.717 134.655L134.656 229.716C138.083 237.036 142.813 243.896 148.859 249.942Z" fill="url(#paint7_linear_567_3)"/>
<defs>
<linearGradient id="paint0_linear_567_3" x1="-0.795" y1="256" x2="322.296" y2="256" gradientUnits="userSpaceOnUse">
<stop stop-color="#FFA1AE"/>
<stop offset="1" stop-color="#FF4565"/>
</linearGradient>
<linearGradient id="paint1_linear_567_3" x1="297.956" y1="297.951" x2="112.097" y2="112.093" gradientUnits="userSpaceOnUse">
<stop stop-color="#FFA1AE"/>
<stop offset="1" stop-color="#FF4565"/>
</linearGradient>
<linearGradient id="paint2_linear_567_3" x1="251.592" y1="304.282" x2="329.972" y2="367.857" gradientUnits="userSpaceOnUse">
<stop stop-color="#FE0364" stop-opacity="0"/>
<stop offset="0.2343" stop-color="#F90362" stop-opacity="0.234"/>
<stop offset="0.5173" stop-color="#EA035B" stop-opacity="0.517"/>
<stop offset="0.8243" stop-color="#D20250" stop-opacity="0.824"/>
<stop offset="1" stop-color="#C00148"/>
</linearGradient>
<linearGradient id="paint3_linear_567_3" x1="278.739" y1="267.166" x2="381.504" y2="282.842" gradientUnits="userSpaceOnUse">
<stop stop-color="#FE0364" stop-opacity="0"/>
<stop offset="0.2343" stop-color="#F90362" stop-opacity="0.234"/>
<stop offset="0.5173" stop-color="#EA035B" stop-opacity="0.517"/>
<stop offset="0.8243" stop-color="#D20250" stop-opacity="0.824"/>
<stop offset="1" stop-color="#C00148"/>
</linearGradient>
<linearGradient id="paint4_linear_567_3" x1="327.476" y1="207.163" x2="393.664" y2="183.649" gradientUnits="userSpaceOnUse">
<stop stop-color="#FE0364" stop-opacity="0"/>
<stop offset="0.2343" stop-color="#F90362" stop-opacity="0.234"/>
<stop offset="0.5173" stop-color="#EA035B" stop-opacity="0.517"/>
<stop offset="0.8243" stop-color="#D20250" stop-opacity="0.824"/>
<stop offset="1" stop-color="#C00148"/>
</linearGradient>
<linearGradient id="paint5_linear_567_3" x1="162.212" y1="162.211" x2="225.676" y2="225.675" gradientUnits="userSpaceOnUse">
<stop stop-color="#F5FBFF"/>
<stop offset="1" stop-color="#DBD5EF"/>
</linearGradient>
<linearGradient id="paint6_linear_567_3" x1="199.401" y1="195.713" x2="199.401" y2="273.649" gradientUnits="userSpaceOnUse">
<stop stop-color="#DBD5EF" stop-opacity="0"/>
<stop offset="0.2853" stop-color="#D9D2EE" stop-opacity="0.285"/>
<stop offset="0.4739" stop-color="#D4C9E9" stop-opacity="0.474"/>
<stop offset="0.6346" stop-color="#CBBAE2" stop-opacity="0.635"/>
<stop offset="0.7795" stop-color="#BFA5D7" stop-opacity="0.78"/>
<stop offset="0.9126" stop-color="#AF8ACA" stop-opacity="0.913"/>
<stop offset="1" stop-color="#A274BF"/>
</linearGradient>
<linearGradient id="paint7_linear_567_3" x1="194.762" y1="195.398" x2="257.019" y2="249.101" gradientUnits="userSpaceOnUse">
<stop stop-color="#DBD5EF" stop-opacity="0"/>
<stop offset="0.2853" stop-color="#D9D2EE" stop-opacity="0.285"/>
<stop offset="0.4739" stop-color="#D4C9E9" stop-opacity="0.474"/>
<stop offset="0.6346" stop-color="#CBBAE2" stop-opacity="0.635"/>
<stop offset="0.7795" stop-color="#BFA5D7" stop-opacity="0.78"/>
<stop offset="0.9126" stop-color="#AF8ACA" stop-opacity="0.913"/>
<stop offset="1" stop-color="#A274BF"/>
</linearGradient>
</defs>
</svg>
