<svg width="254" height="241" viewBox="0 0 254 241" fill="none" xmlns="http://www.w3.org/2000/svg">
<path d="M150.238 216.688C150.238 226.032 142.593 233.674 133.248 233.674H25.013C15.669 233.674 8.022 236.055 8.022 226.711L0 123.229C0 113.884 7.648 106.237 16.994 106.237H125.229C134.574 106.237 142.221 113.884 142.221 123.229L150.238 216.688Z" fill="url(#paint0_linear_569_150)"/>
<path d="M74.496 89.0837L54.465 84.8287C51.304 84.1547 48.167 86.1947 47.494 89.3557L43.104 110.011L31.045 166.748L26.655 187.404C25.982 190.564 28.02 193.701 31.184 194.373L51.215 198.632H51.218L155.106 220.712C157.955 221.316 160.774 219.724 161.797 217.093C161.912 216.8 162.01 216.501 162.084 216.183H162.081L182.916 118.14C183.59 114.973 181.55 111.836 178.386 111.168L74.496 89.0837Z" fill="url(#paint1_linear_569_150)"/>
<path d="M74.496 89.0837L54.465 84.8287C51.304 84.1547 48.167 86.1947 47.494 89.3557L43.104 110.011L31.045 166.748L26.655 187.404C25.982 190.564 28.02 193.701 31.184 194.373L51.215 198.632H51.218L155.106 220.712C157.955 221.316 160.774 219.724 161.797 217.093C161.912 216.8 162.01 216.501 162.084 216.183H162.081L182.916 118.14C183.59 114.973 181.55 111.836 178.386 111.168L74.496 89.0837Z" fill="url(#paint2_linear_569_150)"/>
<path d="M64.298 160.434C64.992 160.582 65.439 161.27 65.291 161.963L62.782 173.768C62.634 174.461 61.946 174.909 61.252 174.762L52.82 172.969C52.126 172.821 51.678 172.133 51.826 171.44L54.335 159.637C54.483 158.944 55.171 158.494 55.865 158.643L64.298 160.434Z" fill="url(#paint3_linear_569_150)"/>
<path d="M54.455 172.658C53.761 172.51 53.314 171.822 53.462 171.129L55.702 160.582C55.849 159.893 56.531 159.449 57.221 159.59L56.603 159.459C55.909 159.313 55.221 159.758 55.073 160.451L52.833 170.996C52.685 171.688 53.132 172.377 53.827 172.525L61.777 174.213H61.78L54.455 172.658Z" fill="#B8EDFF"/>
<path d="M69.197 137.369C69.891 137.516 70.339 138.205 70.191 138.898L67.685 150.703C67.537 151.395 66.849 151.844 66.155 151.697L57.723 149.904C57.029 149.756 56.582 149.068 56.729 148.375L59.235 136.572C59.383 135.877 60.071 135.428 60.765 135.578L69.197 137.369Z" fill="url(#paint4_linear_569_150)"/>
<path d="M74.103 114.305C74.797 114.453 75.245 115.14 75.097 115.834L72.588 127.639C72.441 128.332 71.752 128.78 71.058 128.631L62.623 126.84C61.929 126.692 61.481 126.004 61.629 125.311L64.138 113.507C64.285 112.814 64.974 112.365 65.668 112.513L74.103 114.305Z" fill="url(#paint5_linear_569_150)"/>
<path d="M59.329 149.731C58.635 149.585 58.187 148.895 58.335 148.202L60.578 137.657C60.726 136.967 61.412 136.518 62.105 136.663L61.472 136.53C60.778 136.383 60.09 136.827 59.943 137.522L57.704 148.067C57.557 148.762 58.004 149.45 58.699 149.598L61.734 150.243L59.329 149.731Z" fill="#B8EDFF"/>
<path d="M64.205 126.801C63.511 126.655 63.063 125.967 63.211 125.272L65.449 114.73C65.596 114.035 66.284 113.588 66.978 113.736L74.307 115.295C74.304 115.295 74.302 115.292 74.298 115.292L66.348 113.601C65.654 113.453 64.966 113.899 64.818 114.593L62.578 125.14C62.43 125.832 62.877 126.523 63.572 126.669L71.522 128.359H71.529L64.205 126.801Z" fill="#B8EDFF"/>
<path d="M96.798 109.634L92.589 108.738C91.895 108.592 91.207 109.038 91.059 109.731L85.962 133.715C85.815 134.408 86.262 135.098 86.956 135.244L91.165 136.139C91.859 136.285 92.547 135.84 92.695 135.147L97.791 111.162C97.939 110.469 97.492 109.78 96.798 109.634ZM130.035 116.698L125.825 115.805C125.131 115.657 124.443 116.105 124.295 116.799L119.199 140.779C119.051 141.472 119.498 142.162 120.193 142.308L124.402 143.203C125.096 143.349 125.785 142.904 125.932 142.212L131.029 118.227C131.177 117.533 130.729 116.845 130.035 116.698ZM146.443 120.187L142.23 119.291C141.536 119.143 140.847 119.591 140.701 120.284L135.605 144.266C135.458 144.959 135.906 145.649 136.599 145.795L140.81 146.69C141.502 146.836 142.191 146.391 142.338 145.698L147.437 121.717C147.585 121.022 147.137 120.335 146.443 120.187ZM105.935 149.393L100.889 148.321C100.195 148.175 99.507 148.62 99.359 149.313L96.587 162.356C96.439 163.049 96.886 163.739 97.581 163.887L102.63 164.959C103.324 165.107 104.012 164.662 104.159 163.969L106.93 150.922C107.077 150.229 106.629 149.539 105.935 149.393ZM156.421 160.121L151.37 159.047C150.678 158.901 149.989 159.348 149.841 160.041L147.07 173.084C146.923 173.777 147.371 174.467 148.064 174.613L153.117 175.688C153.81 175.834 154.499 175.387 154.646 174.695L157.414 161.65C157.562 160.957 157.113 160.27 156.421 160.121Z" fill="#FCFCFC"/>
<path d="M68.8997 191.071L74.4294 165.071L155.917 182.402L150.388 208.402L68.8997 191.071Z" fill="#DDE6ED"/>
<path d="M136.344 205.084L141.819 179.328L138.747 178.674L133.276 204.43L136.344 205.084ZM120.199 201.653L125.676 175.899L122.601 175.243L117.127 201.002L120.199 201.653ZM104.051 198.223L109.528 172.461L106.455 171.811L100.982 197.571L104.051 198.223ZM84.836 194.139L87.905 194.791L93.381 169.035L90.309 168.379L84.836 194.139Z" fill="#EDEDED"/>
<path d="M84.836 194.139L87.905 194.791L106.705 106.329L103.633 105.676L84.836 194.139ZM104.051 198.223L122.852 109.762L119.779 109.109L100.982 197.57L104.051 198.223ZM120.199 201.653L138.996 113.194L135.927 112.541L117.127 201.002L120.199 201.653ZM136.344 205.084L155.145 116.622L152.071 115.968L133.276 204.429L136.344 205.084Z" fill="#EAEAEA"/>
<path d="M88.459 103.53C88.547 103.53 88.637 103.539 88.727 103.558L169.814 120.789C170.507 120.935 170.956 121.625 170.808 122.32L152.962 206.296C152.835 206.902 152.294 207.318 151.698 207.318C151.608 207.318 151.52 207.31 151.43 207.292L70.34 190.052C69.646 189.906 69.198 189.218 69.346 188.524L87.193 104.552C87.325 103.946 87.864 103.53 88.459 103.53ZM88.46 100.949C86.644 100.949 85.051 102.239 84.673 104.014L66.825 187.985C66.61 188.997 66.803 190.032 67.367 190.901C67.932 191.768 68.8 192.364 69.81 192.577L150.894 209.815C151.162 209.872 151.431 209.899 151.699 209.899C153.517 209.899 155.111 208.608 155.488 206.829L173.332 122.858C173.773 120.763 172.434 118.705 170.346 118.265L89.264 101.033C89 100.977 88.729 100.949 88.46 100.949Z" fill="#EAEAEA"/>
<path d="M87.2 103.261C87.288 103.261 87.378 103.27 87.468 103.289L168.555 120.525C169.25 120.671 169.698 121.359 169.55 122.056L151.704 206.024C151.577 206.628 151.036 207.045 150.439 207.045C150.351 207.045 150.261 207.036 150.172 207.018L69.082 189.787C68.388 189.641 67.941 188.951 68.088 188.256L85.935 104.286C86.065 103.677 86.604 103.261 87.2 103.261ZM87.2 100.679C85.384 100.679 83.791 101.969 83.413 103.744L65.565 187.715C65.35 188.727 65.543 189.762 66.107 190.631C66.672 191.498 67.54 192.096 68.55 192.309L149.636 209.539C149.903 209.596 150.171 209.623 150.44 209.623C152.258 209.623 153.852 208.334 154.229 206.553L172.073 122.59C172.514 120.496 171.175 118.439 169.087 117.999L88.004 100.764C87.74 100.708 87.469 100.679 87.2 100.679Z" fill="#91A7BE"/>
<path d="M105.446 106.06L86.643 194.524L83.571 193.867L102.371 105.409L105.446 106.06Z" fill="#91A7BE"/>
<path d="M73.6013 161.191L159.705 179.504L159.052 182.578L72.9475 164.265L73.6013 161.191Z" fill="#91A7BE"/>
<path d="M77.1337 137.032L163.238 155.345L162.583 158.423L76.4789 140.111L77.1337 137.032Z" fill="#91A7BE"/>
<path d="M121.595 109.493L102.791 197.953L99.7191 197.301L118.517 108.84L121.595 109.493Z" fill="#91A7BE"/>
<path d="M137.746 112.903L118.936 201.348L115.864 200.695L134.674 112.249L137.746 112.903Z" fill="#91A7BE"/>
<path d="M153.907 116.314L135.095 204.767L132.024 204.114L150.836 115.661L153.907 116.314Z" fill="#91A7BE"/>
<path d="M96.165 109.5C96.859 109.648 97.307 110.335 97.159 111.029L92.066 135.014C91.918 135.707 91.23 136.153 90.536 136.006L86.327 135.111C85.633 134.965 85.186 134.275 85.333 133.582L90.433 109.601C90.581 108.908 91.269 108.459 91.963 108.607L96.165 109.5Z" fill="#9CAAAF"/>
<path d="M129.404 116.565C130.097 116.712 130.547 117.4 130.398 118.094L125.3 142.074C125.153 142.767 124.464 143.216 123.77 143.068L119.561 142.173C118.867 142.027 118.419 141.339 118.567 140.646L123.66 116.661C123.808 115.968 124.496 115.52 125.19 115.668L129.404 116.565Z" fill="#9CAAAF"/>
<path d="M145.811 120.051C146.504 120.197 146.954 120.886 146.805 121.58L141.713 145.561C141.565 146.256 140.877 146.703 140.184 146.553L135.971 145.657C135.278 145.51 134.829 144.819 134.977 144.127L140.076 120.146C140.223 119.453 140.912 119.006 141.604 119.153L145.811 120.051Z" fill="#9CAAAF"/>
<path d="M105.305 149.256C105.999 149.402 106.447 150.092 106.299 150.785L103.527 163.828C103.379 164.52 102.691 164.971 101.997 164.822L96.948 163.75C96.254 163.602 95.807 162.914 95.954 162.221L98.729 149.178C98.876 148.485 99.565 148.037 100.259 148.184L105.305 149.256Z" fill="#9CAAAF"/>
<path d="M155.791 159.989C156.484 160.135 156.934 160.823 156.784 161.516L154.012 174.561C153.864 175.254 153.176 175.702 152.483 175.553L147.436 174.483C146.743 174.337 146.293 173.649 146.442 172.954L149.211 159.913C149.358 159.219 150.046 158.77 150.739 158.92L155.791 159.989Z" fill="#9CAAAF"/>
<path opacity="0.1" d="M176.105 121.793C176.488 118.281 173.933 115.085 170.422 114.694L54.982 101.893L45.062 100.794L43.104 110.01L31.045 166.748L26.655 187.404C25.982 190.564 28.02 193.701 31.184 194.373L51.215 198.631H51.218L155.106 220.711C157.955 221.316 160.774 219.723 161.797 217.092C161.912 216.799 162.01 216.5 162.084 216.182H162.081L169.516 181.196L176.105 121.793Z" fill="#2C2C2C"/>
<path d="M54.982 104.8L32.722 102.331C29.209 101.944 26.014 104.498 25.625 108.012L23.081 130.962L16.089 194.007L13.543 216.96C13.153 220.47 15.71 223.667 19.227 224.056L41.483 226.523L156.922 239.329C160.086 239.677 162.984 237.64 163.818 234.665C163.91 234.337 163.984 233.997 164.021 233.644L176.107 124.704C176.488 121.185 173.933 117.994 170.423 117.602L54.982 104.797V104.8Z" fill="url(#paint6_linear_569_150)"/>
<path d="M51.59 183.547C52.361 183.633 52.922 184.332 52.837 185.104L51.382 198.215C51.297 198.988 50.595 199.549 49.824 199.463L40.455 198.422C39.684 198.338 39.122 197.637 39.208 196.865L40.663 183.754C40.748 182.981 41.45 182.42 42.221 182.506L51.59 183.547Z" fill="url(#paint7_linear_569_150)"/>
<path d="M42.203 197.908C41.432 197.822 40.871 197.121 40.956 196.348L42.256 184.635C42.341 183.864 43.043 183.301 43.814 183.387L48.855 183.949L43.112 183.307C42.341 183.223 41.639 183.785 41.554 184.555L40.254 196.272C40.169 197.043 40.73 197.746 41.501 197.832L50.335 198.811H50.34L42.203 197.908Z" fill="#B8EDFF"/>
<path d="M54.432 157.912C55.203 157.998 55.764 158.699 55.679 159.471L54.224 172.59C54.139 173.361 53.437 173.924 52.666 173.838L43.296 172.797C42.525 172.711 41.964 172.012 42.049 171.238L43.504 158.121C43.589 157.35 44.291 156.789 45.062 156.875L54.432 157.912Z" fill="url(#paint8_linear_569_150)"/>
<path d="M57.273 132.287C58.044 132.373 58.605 133.072 58.52 133.846L57.065 146.957C56.98 147.728 56.278 148.289 55.507 148.205L46.138 147.164C45.367 147.078 44.806 146.377 44.892 145.604L46.347 132.496C46.433 131.725 47.134 131.162 47.906 131.248L57.273 132.287Z" fill="url(#paint9_linear_569_150)"/>
<path d="M43.781 170.873L45.08 159.16C45.166 158.389 45.864 157.83 46.633 157.912L45.937 157.836C45.166 157.75 44.464 158.311 44.379 159.082L43.079 170.795C42.994 171.566 43.555 172.268 44.326 172.354L47.309 172.686L45.026 172.432C44.256 172.346 43.695 171.645 43.781 170.873ZM54.771 158.817L49.622 158.245L54.78 158.821C54.777 158.821 54.774 158.817 54.771 158.817Z" fill="#B8EDFF"/>
<path d="M81.47 124.752L76.794 124.232C76.023 124.145 75.321 124.707 75.236 125.479L72.279 152.123C72.194 152.894 72.755 153.594 73.526 153.682L78.203 154.203C78.974 154.289 79.675 153.727 79.761 152.955L82.718 126.309C82.803 125.539 82.241 124.838 81.47 124.752ZM118.397 128.848L113.726 128.328C112.955 128.242 112.254 128.803 112.168 129.574L109.211 156.217C109.126 156.99 109.687 157.69 110.458 157.776L115.131 158.295C115.902 158.381 116.604 157.817 116.689 157.047L119.643 130.407C119.729 129.635 119.168 128.934 118.397 128.848ZM136.63 130.867L131.957 130.348C131.186 130.262 130.484 130.826 130.398 131.596L127.44 158.242C127.355 159.014 127.916 159.715 128.689 159.801L133.365 160.319C134.136 160.405 134.838 159.844 134.923 159.071L137.877 132.426C137.963 131.655 137.4 130.953 136.63 130.867ZM95.708 167.03L90.1 166.409C89.329 166.323 88.627 166.885 88.542 167.655L86.936 182.141C86.851 182.914 87.412 183.614 88.183 183.7L93.788 184.325C94.559 184.411 95.261 183.848 95.346 183.077L96.955 168.588C97.041 167.815 96.479 167.114 95.708 167.03ZM151.805 173.25L146.196 172.629C145.425 172.543 144.723 173.106 144.637 173.877L143.033 188.359C142.946 189.131 143.51 189.834 144.28 189.92L149.889 190.543C150.66 190.629 151.362 190.068 151.449 189.297L153.053 174.809C153.139 174.037 152.576 173.336 151.805 173.25Z" fill="#FCFCFC"/>
<path d="M59.912 216.317L63.117 187.428L153.675 197.467L150.467 226.36L59.912 216.317Z" fill="#DDE6ED"/>
<path d="M134.812 224.348L137.994 195.725L134.576 195.346L131.402 223.967L134.812 224.348ZM116.875 222.358L120.051 193.735L116.635 193.356L113.465 221.977L116.875 222.358ZM98.935 220.367L102.111 191.748L98.696 191.365L95.52 219.99L98.935 220.367ZM77.58 218L80.996 218.379L84.172 189.76L80.756 189.379L77.58 218Z" fill="#EDEDED"/>
<path d="M77.58 218L80.996 218.379L91.895 120.082L88.483 119.707L77.58 218ZM98.935 220.367L109.834 122.072L106.419 121.693L95.52 219.991L98.935 220.367ZM116.875 222.358L127.777 124.065L124.365 123.684L113.466 221.977L116.875 222.358ZM134.812 224.348L145.72 126.049L142.304 125.674L131.402 223.967L134.812 224.348Z" fill="#EAEAEA"/>
<path d="M71.878 119.001C71.929 119.001 71.981 119.004 72.033 119.01L162.131 129.002C162.902 129.088 163.464 129.787 163.379 130.561L153.032 223.866C152.952 224.586 152.337 225.122 151.629 225.122C151.578 225.122 151.525 225.12 151.475 225.114L61.373 215.118C60.602 215.032 60.041 214.334 60.126 213.561L70.476 120.258C70.555 119.538 71.17 119.001 71.878 119.001ZM71.878 116.179C69.716 116.179 67.907 117.799 67.67 119.949L57.32 213.25C57.064 215.568 58.742 217.666 61.06 217.922L151.162 227.918C151.316 227.936 151.474 227.943 151.628 227.943C153.788 227.943 155.598 226.324 155.836 224.174L166.184 130.868C166.307 129.745 165.987 128.641 165.278 127.758C164.571 126.875 163.565 126.32 162.442 126.196L72.345 116.203C72.186 116.187 72.032 116.179 71.878 116.179Z" fill="#EAEAEA"/>
<path d="M70.474 118.845C70.525 118.845 70.577 118.848 70.628 118.854L160.729 128.849C161.5 128.935 162.063 129.636 161.977 130.409L151.632 223.712C151.553 224.431 150.938 224.968 150.231 224.968C150.178 224.968 150.127 224.964 150.076 224.958L59.972 214.968C59.201 214.882 58.64 214.181 58.725 213.409L69.071 120.102C69.15 119.381 69.766 118.845 70.474 118.845ZM70.474 116.023C68.311 116.023 66.503 117.644 66.266 119.792L55.92 213.096C55.664 215.416 57.342 217.512 59.66 217.77L149.765 227.76C149.919 227.78 150.077 227.787 150.23 227.787C152.39 227.787 154.201 226.166 154.437 224.018L164.782 130.715C164.906 129.592 164.586 128.487 163.878 127.604C163.171 126.721 162.164 126.166 161.042 126.042L70.941 116.047C70.782 116.031 70.628 116.023 70.474 116.023Z" fill="#91A7BE"/>
<path d="M90.496 119.928L79.593 218.225L76.181 217.844L87.078 119.55L90.496 119.928Z" fill="#91A7BE"/>
<path d="M61.8962 183.395L157.589 193.985L157.21 197.403L61.518 186.814L61.8962 183.395Z" fill="#91A7BE"/>
<path d="M63.1119 156.721L158.804 167.31L158.426 170.729L62.7336 160.139L63.1119 156.721Z" fill="#91A7BE"/>
<path d="M108.433 121.914L97.531 220.211L94.121 219.836L105.021 121.539L108.433 121.914Z" fill="#91A7BE"/>
<path d="M126.371 123.958L115.493 222.258L112.077 221.88L122.956 123.58L126.371 123.958Z" fill="#91A7BE"/>
<path d="M144.314 125.94L133.435 224.242L130.019 223.864L140.897 125.562L144.314 125.94Z" fill="#91A7BE"/>
<path d="M80.767 124.676C81.538 124.762 82.099 125.461 82.014 126.235L79.06 152.879C78.975 153.65 78.273 154.211 77.502 154.124L72.826 153.608C72.055 153.522 71.494 152.821 71.579 152.049L74.536 125.403C74.621 124.632 75.323 124.069 76.094 124.155L80.767 124.676Z" fill="#9CAAAF"/>
<path d="M117.697 128.768C118.468 128.854 119.029 129.555 118.944 130.327L115.99 156.973C115.905 157.745 115.203 158.307 114.432 158.221L109.758 157.7C108.987 157.614 108.426 156.913 108.511 156.141L111.465 129.496C111.55 128.723 112.252 128.162 113.023 128.248L117.697 128.768Z" fill="#9CAAAF"/>
<path d="M135.93 130.791C136.701 130.877 137.264 131.576 137.177 132.35L134.223 158.993C134.137 159.764 133.436 160.325 132.664 160.239L127.988 159.721C127.217 159.637 126.656 158.936 126.742 158.164L129.701 131.518C129.787 130.747 130.486 130.184 131.26 130.27L135.93 130.791Z" fill="#9CAAAF"/>
<path d="M95.01 166.949C95.781 167.035 96.343 167.738 96.257 168.51L94.647 183C94.561 183.771 93.859 184.332 93.088 184.246L87.477 183.623C86.706 183.537 86.145 182.836 86.23 182.063L87.84 167.572C87.925 166.801 88.627 166.24 89.398 166.326L95.01 166.949Z" fill="#9CAAAF"/>
<path d="M151.105 173.17C151.877 173.256 152.439 173.957 152.353 174.729L150.743 189.221C150.657 189.992 149.957 190.555 149.183 190.469L143.575 189.844C142.804 189.758 142.242 189.059 142.327 188.287L143.935 173.797C144.021 173.026 144.722 172.463 145.494 172.549L151.105 173.17Z" fill="#9CAAAF"/>
<path d="M183.818 46.9287L155.924 3.0647C153.046 -1.4563 149.616 -0.912299 148.291 4.2797L143.448 23.2607C70.444 2.7277 53.424 63.5527 53.424 63.5527C53.424 63.5527 60.349 48.9987 75.099 48.9747C108.35 50.2647 125.273 56.8997 133.557 62.0297L128.235 82.9037C126.906 88.0957 129.604 90.1187 134.215 87.4067L180.649 60.0837C185.266 57.3667 186.689 51.4407 183.818 46.9287Z" fill="url(#paint10_linear_569_150)"/>
<path d="M8.52801 225.004C6.13901 232.787 10.028 240.106 26.427 240.106H207.534C217.187 240.106 222.384 233.674 225.087 222.551L254 110.759C254 101.104 246.102 93.2027 236.447 93.2027H184.842C175.186 93.2027 162.496 99.4897 156.647 107.169L140.925 127.815C135.072 135.495 122.384 141.778 112.727 141.778H55.34C45.685 141.778 41.909 147.45 36.782 159.338C36.782 159.336 11.475 215.401 8.52801 225.004Z" fill="url(#paint11_linear_569_150)"/>
<path opacity="0.1" d="M225.087 218.192C222.384 229.319 217.19 235.749 207.534 235.749H26.427C14.472 235.749 9.18802 231.854 8.11402 226.729C6.80002 233.834 11.249 240.106 26.427 240.106H207.534C217.187 240.106 222.384 233.674 225.087 222.551V218.192Z" fill="#2C2C2C"/>
<defs>
<linearGradient id="paint0_linear_569_150" x1="75.119" y1="94.9687" x2="75.119" y2="175.726" gradientUnits="userSpaceOnUse">
<stop stop-color="#F9AA2D"/>
<stop offset="1" stop-color="#E09115"/>
</linearGradient>
<linearGradient id="paint1_linear_569_150" x1="76.672" y1="146.786" x2="231.547" y2="179.725" gradientUnits="userSpaceOnUse">
<stop stop-color="#FEFEFE"/>
<stop offset="1" stop-color="#E2E2E2"/>
</linearGradient>
<linearGradient id="paint2_linear_569_150" x1="72.2991" y1="152.745" x2="251.292" y2="152.787" gradientUnits="userSpaceOnUse">
<stop stop-color="#F5F5F5"/>
<stop offset="0.4754" stop-color="#EAEAEA"/>
<stop offset="1" stop-color="#E2E2E2"/>
</linearGradient>
<linearGradient id="paint3_linear_569_150" x1="48.8068" y1="164.608" x2="67.3155" y2="168.545" gradientUnits="userSpaceOnUse">
<stop stop-color="#62B1DD"/>
<stop offset="1" stop-color="#2A7CA0"/>
</linearGradient>
<linearGradient id="paint4_linear_569_150" x1="53.7133" y1="141.548" x2="72.22" y2="145.484" gradientUnits="userSpaceOnUse">
<stop stop-color="#62B1DD"/>
<stop offset="1" stop-color="#2A7CA0"/>
</linearGradient>
<linearGradient id="paint5_linear_569_150" x1="58.6179" y1="118.487" x2="77.1314" y2="122.425" gradientUnits="userSpaceOnUse">
<stop stop-color="#62B1DD"/>
<stop offset="1" stop-color="#2A7CA0"/>
</linearGradient>
<linearGradient id="paint6_linear_569_150" x1="63.6521" y1="167.382" x2="235.788" y2="186.432" gradientUnits="userSpaceOnUse">
<stop stop-color="#FEFEFE"/>
<stop offset="1" stop-color="#E2E2E2"/>
</linearGradient>
<linearGradient id="paint7_linear_569_150" x1="35.2553" y1="189.809" x2="55.8251" y2="192.085" gradientUnits="userSpaceOnUse">
<stop stop-color="#62B1DD"/>
<stop offset="1" stop-color="#2A7CA0"/>
</linearGradient>
<linearGradient id="paint8_linear_569_150" x1="38.0908" y1="164.177" x2="58.6616" y2="166.454" gradientUnits="userSpaceOnUse">
<stop stop-color="#62B1DD"/>
<stop offset="1" stop-color="#2A7CA0"/>
</linearGradient>
<linearGradient id="paint9_linear_569_150" x1="39.6212" y1="139.729" x2="62.6792" y2="139.724" gradientUnits="userSpaceOnUse">
<stop stop-color="#54BDF1"/>
<stop offset="1" stop-color="#3AA5D9"/>
</linearGradient>
<linearGradient id="paint10_linear_569_150" x1="44.6034" y1="44.1974" x2="129.147" y2="44.2203" gradientUnits="userSpaceOnUse">
<stop stop-color="#5AE050"/>
<stop offset="1" stop-color="#40D437"/>
</linearGradient>
<linearGradient id="paint11_linear_569_150" x1="130.941" y1="42.1597" x2="130.941" y2="230.209" gradientUnits="userSpaceOnUse">
<stop stop-color="#FED52F"/>
<stop offset="1" stop-color="#F2C719"/>
</linearGradient>
</defs>
</svg>
