<svg width="51" height="50" viewBox="0 0 51 50" fill="none" xmlns="http://www.w3.org/2000/svg">
<path d="M25.0923 12.394L25.9299 13.6784L26.7675 12.394L32.5629 3.50708L32.2761 14.3465L32.2369 15.829L33.626 15.3097L43.3797 11.6633L37.0129 20.3474L36.1835 21.4787L37.5235 21.8939L47.5505 25.0001L37.5235 28.1063L36.1835 28.5215L37.0129 29.6528L43.3797 38.3369L33.626 34.6905L32.2369 34.1712L32.2761 35.6537L32.5629 46.4931L26.7675 37.6062L25.9299 36.3218L25.0923 37.6062L19.2969 46.4931L19.5837 35.6537L19.6229 34.1704L18.2334 34.6907L8.49546 38.3369L14.8475 29.6519L15.6747 28.5209L14.3363 28.1063L4.30933 25.0001L14.3363 21.8939L15.6747 21.4792L14.8475 20.3483L8.49546 11.6633L18.2334 15.3095L19.6229 15.8298L19.5837 14.3465L19.2969 3.50709L25.0923 12.394Z" stroke="#F0F0F0" stroke-width="2"/>
</svg>
