<svg width="103" height="112" viewBox="0 0 103 112" fill="none" xmlns="http://www.w3.org/2000/svg">
<path d="M51.431 111.571C51.2168 111.569 51.0063 111.515 50.8176 111.413L1.27909 84.832C1.06516 84.7171 0.886379 84.5465 0.761744 84.3382C0.637109 84.1298 0.571289 83.8917 0.571289 83.649V28.0672C0.571289 27.8243 0.637109 27.5862 0.761744 27.3778C0.886379 27.1696 1.06516 26.9989 1.27909 26.8841L50.8179 0.302381C51.0137 0.197786 51.2324 0.143066 51.4544 0.143066C51.6762 0.143066 51.8949 0.197786 52.0907 0.302381L101.629 26.8841C101.843 26.9989 102.022 27.1696 102.147 27.3778C102.271 27.5862 102.337 27.8243 102.337 28.0672V83.649C102.337 83.8917 102.271 84.1298 102.147 84.3382C102.022 84.5465 101.843 84.7171 101.629 84.832L52.0904 111.413C51.8879 111.522 51.6606 111.576 51.431 111.571ZM20.3957 55.858L51.4541 107.622L82.5123 55.858L51.4541 4.09402L20.3957 55.858ZM84.8382 57.2006L55.1114 106.745L99.6516 82.8458V57.2006H84.8382ZM3.25639 82.8458L47.7969 106.745L18.0701 57.2006H3.25639V82.8458ZM84.8382 54.5155H99.6516V28.8703L55.1114 4.97071L84.8382 54.5155ZM3.25639 54.5155H18.0698L47.7969 4.97071L3.25639 28.8703V54.5155Z" fill="#1C1A1E"/>
</svg>
