<svg width="106" height="96" viewBox="0 0 106 96" fill="none" xmlns="http://www.w3.org/2000/svg">
<path d="M104.235 95.8866H104.23H1.76491C1.54522 95.8866 1.32933 95.8293 1.13848 95.7205C0.947639 95.6116 0.788414 95.455 0.676499 95.266C0.564569 95.0769 0.503804 94.8619 0.500174 94.6423C0.496529 94.4227 0.550154 94.2058 0.655769 94.0132L25.9382 47.9433L0.656024 1.87345C0.550349 1.68084 0.496649 1.46401 0.500234 1.24435C0.503834 1.02468 0.564569 0.80973 0.676469 0.620655C0.788384 0.431595 0.947594 0.274935 1.13845 0.166095C1.32931 0.0572703 1.54521 3e-05 1.76491 0H104.23C104.677 0 105.09 0.236055 105.318 0.62061C105.546 1.00517 105.554 1.48156 105.339 1.87345L80.0565 47.9433L105.288 93.9208C105.415 94.1115 105.488 94.3329 105.498 94.5615C105.509 94.7901 105.458 95.0175 105.35 95.2192C105.242 95.421 105.081 95.5896 104.885 95.7072C104.688 95.8246 104.463 95.8867 104.235 95.8866ZM55.1346 93.3567H102.092L78.6134 50.5728L55.1346 93.3567ZM3.90225 93.3567H50.8601L27.381 50.5728L3.90225 93.3567ZM28.8242 47.9433L52.9973 91.9923L77.1705 47.9433L52.9973 3.89445L28.8242 47.9433ZM55.1346 2.52999L78.6137 45.3139L102.092 2.52999H55.1346ZM3.90225 2.52999L27.3813 45.3139L50.8601 2.52999H3.90225Z" fill="#1C1A1E"/>
</svg>
