<svg width="102" height="102" viewBox="0 0 102 102" fill="none" xmlns="http://www.w3.org/2000/svg">
<path d="M100.771 101.992C100.609 101.992 100.449 101.961 100.3 101.899C100.151 101.837 100.016 101.746 99.9018 101.632L75.3349 77.0653L51.8739 100.526C51.7597 100.64 51.6243 100.731 51.4752 100.793C51.3261 100.854 51.1663 100.886 51.0049 100.886C50.8435 100.886 50.6838 100.854 50.5347 100.793C50.3856 100.731 50.2501 100.64 50.1361 100.526L26.6754 77.0653L2.10865 101.632C1.9951 101.749 1.85954 101.841 1.70984 101.905C1.56016 101.969 1.39931 102.002 1.23664 102.003C1.07396 102.004 0.912714 101.973 0.762219 101.911C0.611724 101.849 0.474999 101.758 0.359949 101.643C0.244914 101.528 0.153864 101.392 0.092079 101.241C0.030294 101.091 -0.000995842 100.929 2.41577e-05 100.767C0.00104416 100.604 0.0343442 100.443 0.0980192 100.293C0.161679 100.144 0.254439 100.008 0.370914 99.8946L24.9376 75.3276L1.4768 51.8667C1.24637 51.6362 1.11692 51.3237 1.11692 50.9978C1.11692 50.672 1.24637 50.3594 1.4768 50.129L24.9376 26.6682L0.370914 2.10146C0.255984 1.98753 0.164694 1.85204 0.102279 1.70274C0.0398643 1.55345 0.00755388 1.39329 0.00719388 1.23147C0.00684888 1.06965 0.0384543 0.909362 0.100224 0.759782C0.161979 0.610217 0.252669 0.474333 0.367104 0.359898C0.481524 0.245478 0.617424 0.154788 0.766989 0.0930175C0.916554 0.0312625 1.07684 -0.000342206 1.23866 2.79432e-06C1.40048 0.000362794 1.56064 0.0326725 1.70993 0.0950875C1.85923 0.157502 1.99472 0.248792 2.10865 0.363722L26.6754 24.9305L50.1361 1.46961C50.3665 1.23918 50.6791 1.10972 51.0049 1.10972C51.3309 1.10972 51.6433 1.23918 51.8739 1.46961L75.3349 24.9305L99.9018 0.363722C100.133 0.138108 100.444 0.0127679 100.767 0.0148379C101.091 0.0169079 101.4 0.146237 101.628 0.374777C101.857 0.603332 101.986 0.912707 101.988 1.2359C101.99 1.55909 101.865 1.87005 101.639 2.10146L77.0728 26.6682L100.534 50.129C100.764 50.3594 100.894 50.672 100.894 50.9978C100.894 51.3237 100.764 51.6362 100.534 51.8667L77.0728 75.3276L101.64 99.8946C101.812 100.066 101.929 100.285 101.976 100.524C102.024 100.762 102 101.009 101.906 101.234C101.813 101.459 101.656 101.651 101.454 101.786C101.251 101.921 101.014 101.992 100.771 101.992ZM28.4133 75.3276L51.0051 97.9197L73.5972 75.3276L51.0051 52.7357L28.4133 75.3276ZM52.7431 50.9979L75.3349 73.59L97.9269 50.9979L75.3349 28.4058L52.7431 50.9979ZM4.08353 50.9979L26.6754 73.59L49.2673 50.9979L26.6754 28.4058L4.08353 50.9979ZM28.4133 26.6682L51.0051 49.2601L73.5972 26.6682L51.0051 4.0761L28.4133 26.6682Z" fill="#1C1A1E"/>
</svg>
