<svg width="64" height="106" viewBox="0 0 64 106" fill="none" xmlns="http://www.w3.org/2000/svg">
<path d="M62.3027 105.5C61.9972 105.5 61.7014 105.392 61.4683 105.194L32.0482 80.3001L2.62821 105.194C2.36631 105.416 2.02731 105.524 1.68546 105.496C1.34376 105.467 1.0274 105.304 0.805855 105.042C0.584455 104.78 0.476006 104.441 0.504506 104.099C0.533006 103.758 0.696055 103.441 0.957955 103.22L30.0467 78.6063L0.957955 53.9928C0.814555 53.8713 0.699356 53.7202 0.620306 53.5498C0.541256 53.3794 0.500306 53.1936 0.500306 53.0057C0.500306 52.8179 0.541256 52.6322 0.620306 52.4618C0.699356 52.2913 0.814555 52.14 0.957955 52.0187L30.0467 27.4052L0.957955 2.79154C0.412855 2.33021 0.344755 1.51462 0.806155 0.9695C1.26741 0.424385 2.08326 0.35612 2.62821 0.8177L32.0482 25.7114L61.4686 0.817445C61.5977 0.705035 61.748 0.619416 61.9106 0.565566C62.0732 0.511716 62.2448 0.4907 62.4157 0.503765C62.5865 0.516815 62.7529 0.563675 62.9054 0.641615C63.058 0.71954 63.1936 0.827015 63.3041 0.957755C63.4148 1.08851 63.4984 1.23994 63.55 1.40326C63.6016 1.56656 63.6203 1.73851 63.6049 1.9091C63.5894 2.07968 63.5404 2.24552 63.4603 2.39696C63.3803 2.5484 63.271 2.68244 63.1388 2.79128L34.0498 27.4052L63.1385 52.0187C63.2819 52.14 63.3973 52.2913 63.4763 52.4618C63.5554 52.6322 63.5963 52.8179 63.5963 53.0057C63.5963 53.1936 63.5554 53.3794 63.4763 53.5498C63.3973 53.7203 63.2819 53.8715 63.1385 53.9928L34.0498 78.6063L63.1385 103.22C63.3406 103.391 63.4853 103.62 63.553 103.876C63.6206 104.132 63.608 104.403 63.5168 104.652C63.4258 104.901 63.2603 105.115 63.0433 105.267C62.8261 105.419 62.5676 105.5 62.3027 105.5ZM3.79461 53.0057L32.0482 76.9125L60.302 53.0057L32.0482 29.0989L3.79461 53.0057Z" fill="#1C1A1E"/>
</svg>
