<svg width="113" height="96" viewBox="0 0 113 96" fill="none" xmlns="http://www.w3.org/2000/svg">
<path d="M83.5872 95.4219H29.9124C29.6793 95.4219 29.4501 95.3618 29.247 95.2473C29.0438 95.1327 28.8737 94.9677 28.7531 94.7682L0.69581 48.4128C0.56771 48.201 0.5 47.9583 0.5 47.711C0.5 47.4635 0.56771 47.2208 0.69581 47.0091L28.7531 0.653581C28.8738 0.454141 29.0439 0.2892 29.247 0.17472C29.4501 0.0602248 29.6793 4.5e-05 29.9124 0H83.5872C83.8205 3e-05 84.0497 0.0601955 84.2528 0.174675C84.4559 0.28917 84.626 0.454126 84.7468 0.653581L112.804 47.0091C112.932 47.2208 113 47.4635 113 47.711C113 47.9585 112.932 48.2012 112.804 48.4128L84.7468 94.7682C84.626 94.9677 84.4559 95.1327 84.2528 95.2473C84.0497 95.3618 83.8205 95.4219 83.5872 95.4219ZM30.6767 92.711H82.8235L110.06 47.711L82.8235 2.71085H30.6767L3.43973 47.711L30.6767 92.711ZM77.4554 89.3228C77.222 89.3231 76.9923 89.2629 76.7889 89.1485C76.5857 89.0339 76.4153 88.8687 76.2946 88.6689L51.9308 48.4149C51.8027 48.2033 51.7351 47.9606 51.7351 47.7131C51.7351 47.4657 51.8027 47.223 51.9308 47.0112L76.2946 6.75735C76.4831 6.45495 76.7833 6.23895 77.1299 6.15615C77.4766 6.07335 77.8418 6.13035 78.1466 6.315C78.4516 6.4995 78.6715 6.79665 78.7588 7.14225C78.8462 7.4877 78.794 7.8537 78.6134 8.16105L54.6744 47.7131L78.6134 87.2652C78.7379 87.4707 78.8054 87.7055 78.8093 87.9458C78.813 88.1859 78.753 88.4228 78.6351 88.6322C78.5174 88.8414 78.3461 89.0157 78.1388 89.1371C77.9314 89.2584 77.6956 89.3225 77.4554 89.3228ZM43.2987 89.3205C43.0652 89.3208 42.8357 89.2608 42.6323 89.1462C42.4289 89.0316 42.2587 88.8665 42.1379 88.6667L17.7741 48.4128C17.646 48.201 17.5784 47.9583 17.5784 47.711C17.5784 47.4635 17.646 47.2208 17.7741 47.0091L42.1379 6.7551C42.23 6.60285 42.3512 6.47025 42.4946 6.3648C42.6382 6.25935 42.8009 6.18315 42.9737 6.1407C43.1465 6.09825 43.326 6.09015 43.502 6.11715C43.6779 6.144 43.8468 6.20535 43.9991 6.2976C44.1515 6.3897 44.2841 6.5109 44.3896 6.65445C44.4949 6.79785 44.5711 6.9606 44.6135 7.1334C44.656 7.3062 44.6641 7.48575 44.6371 7.6617C44.6102 7.83765 44.549 8.00655 44.4568 8.1588L20.5181 47.711L44.457 87.263C44.5814 87.4685 44.649 87.7034 44.6529 87.9437C44.6567 88.1838 44.5965 88.4207 44.4788 88.6301C44.3609 88.8395 44.1895 89.0136 43.9822 89.135C43.7749 89.2563 43.5389 89.3204 43.2987 89.3205ZM60.4109 89.3184C60.1775 89.3187 59.948 89.2586 59.7446 89.1441C59.5412 89.0295 59.3708 88.8644 59.25 88.6646L34.8864 48.4106C34.7583 48.1989 34.6905 47.9562 34.6905 47.7087C34.6905 47.4614 34.7583 47.2187 34.8864 47.0069L59.25 6.753C59.4387 6.4506 59.7387 6.2346 60.0854 6.1518C60.432 6.069 60.7973 6.126 61.1023 6.31065C61.4071 6.49515 61.627 6.7923 61.7144 7.1379C61.8017 7.48335 61.7495 7.84935 61.569 8.1567L37.6302 47.7087L61.5692 87.2609C61.6937 87.4664 61.7613 87.7013 61.7651 87.9414C61.7688 88.1817 61.7088 88.4186 61.5909 88.628C61.473 88.8372 61.3017 89.0115 61.0943 89.1329C60.887 89.2542 60.6512 89.3183 60.4109 89.3184Z" fill="#1C1A1E"/>
</svg>
