<svg width="102" height="102" viewBox="0 0 102 102" fill="none" xmlns="http://www.w3.org/2000/svg">
<path d="M100.744 101.984C100.584 101.988 100.425 101.96 100.276 101.902C100.127 101.844 99.9912 101.757 99.8763 101.646L74.7816 77.6917L51.9075 101.605C51.7902 101.728 51.6493 101.826 51.4933 101.892C51.3373 101.959 51.1694 101.993 50.9997 101.993C50.8301 101.993 50.6622 101.959 50.5062 101.892C50.3502 101.826 50.2093 101.728 50.092 101.605L27.2181 77.6917L2.12341 101.646C1.94547 101.816 1.7216 101.93 1.47956 101.973C1.2375 102.017 0.987945 101.989 0.76182 101.892C0.53571 101.795 0.342975 101.634 0.207555 101.429C0.0721201 101.223 -4.4979e-05 100.983 2.10327e-08 100.737C2.10327e-08 100.737 0.000749867 48.6833 0.00251987 48.6519C0.0231299 48.3362 0.16179 48.0398 0.390915 47.8215L50.1277 0.345347C50.6083 -0.113398 51.3975 -0.117673 51.8748 0.347867L101.612 47.8244C101.842 48.0438 101.979 48.3421 101.998 48.6592C101.999 48.6832 102 100.667 102 100.737C102 101.468 101.384 101.97 100.744 101.984ZM29.0353 75.9573L50.9997 98.9201L72.9642 75.9573L50.9997 54.9909L29.0353 75.9573ZM76.5182 75.8763L99.4875 97.8018V51.8629L76.5182 75.8763ZM2.51206 51.8629V97.8015L25.4814 75.8763L2.51206 51.8629ZM52.2559 52.717L74.7006 74.1416L98.9667 48.7728L52.2559 4.18517V52.717ZM3.03286 48.7728L27.2988 74.1416L49.7436 52.717V4.18517L3.03286 48.7728Z" fill="#1C1A1E"/>
</svg>
