<svg width="600" height="300" viewBox="0 0 600 300" fill="none" xmlns="http://www.w3.org/2000/svg">
<path d="M150 0.646545C232.486 0.646545 299.354 67.5146 299.354 150C299.354 232.486 232.486 299.353 150 299.353C67.5147 299.353 0.646606 232.486 0.646606 150C0.646606 67.5146 67.5147 0.646545 150 0.646545ZM300.647 299.352V150V0.647915C382.835 0.996251 449.354 67.7303 449.354 150C449.354 232.27 382.835 299.004 300.647 299.352ZM450.647 0.647915C532.835 0.996251 599.354 67.7303 599.354 150C599.354 232.27 532.835 299.004 450.647 299.352V150V0.647915Z" stroke="#1C1A1E" stroke-opacity="0.1"/>
</svg>
