<svg width="1490" height="234" viewBox="0 0 1490 234" fill="none" xmlns="http://www.w3.org/2000/svg">
<path d="M20 142.528L18.9955 142.504L18.9955 142.504L20 142.528ZM20.0001 220.058L25.7995 210.245L14.2007 209.967L20.0001 220.058ZM730.483 113.851L730.452 112.855L730.483 113.851ZM44.3421 118.244L44.3113 117.248L44.3113 117.248L44.3421 118.244ZM20 142.528L18.9955 142.504L18.9956 211.077L20.0001 211.101L21.0046 211.125L21.0045 142.552L20 142.528ZM730.483 113.851L730.452 112.855L44.3113 117.248L44.3421 118.244L44.3729 119.239L730.513 114.846L730.483 113.851ZM745 99.3678L743.996 99.3437C743.996 106.824 737.998 112.807 730.452 112.855L730.483 113.851L730.513 114.846C739.145 114.791 746.005 107.947 746.005 99.3919L745 99.3678ZM20 142.528L21.0045 142.552C21.0045 129.646 31.3526 119.323 44.3729 119.239L44.3421 118.244L44.3113 117.248C30.2059 117.339 18.9956 128.522 18.9955 142.504L20 142.528Z" fill="#F1F1F1"/>
<path d="M310 140.263L311.011 140.297L311.011 140.297L310 140.263ZM310 220.058L315.838 210.371L304.162 209.982L310 220.058ZM730.287 113.852L730.246 112.863L730.287 113.852ZM334.252 116.388L334.211 115.399L334.211 115.399L334.252 116.388ZM310 140.263L308.989 140.23L308.989 211.131L310 211.165L311.011 211.199L311.011 140.297L310 140.263ZM730.287 113.852L730.246 112.863L334.211 115.399L334.252 116.388L334.293 117.377L730.328 114.841L730.287 113.852ZM745 99.3679L743.989 99.3342C743.989 106.844 737.925 112.814 730.246 112.863L730.287 113.852L730.328 114.841C739.091 114.785 746.011 107.972 746.011 99.4016L745 99.3679ZM310 140.263L311.011 140.297C311.011 127.574 321.285 117.46 334.293 117.377L334.252 116.388L334.211 115.399C320.119 115.489 308.989 126.446 308.989 140.23L310 140.263Z" fill="#F1F1F1"/>
<path d="M600 138.396L601.036 138.404L601.036 138.404L600 138.396ZM600 220.058L605.981 210.477L594.019 210.388L600 220.058ZM729.515 113.857L729.53 114.82L729.53 114.82L729.515 113.857ZM625.514 114.523L625.498 113.56L625.498 113.56L625.514 114.523ZM600 138.396L598.964 138.388L598.964 211.387L600 211.395L601.036 211.403L601.036 138.404L600 138.396ZM729.515 113.857L729.499 112.895L625.498 113.56L625.514 114.523L625.529 115.486L729.53 114.82L729.515 113.857ZM745 99.3681L743.964 99.3604C743.964 106.816 737.523 112.843 729.499 112.895L729.515 113.857L729.53 114.82C738.686 114.761 746.036 107.884 746.036 99.3758L745 99.3681ZM600 138.396L601.036 138.404C601.036 125.779 611.943 115.573 625.529 115.486L625.514 114.523L625.498 113.56C610.78 113.655 598.964 124.711 598.964 138.388L600 138.396Z" fill="#F1F1F1"/>
<path d="M760.485 113.857L760.47 114.82L760.47 114.82L760.485 113.857ZM864.486 114.523L864.501 113.56L864.501 113.56L864.486 114.523ZM890 138.396L891.036 138.388L891.036 138.388L890 138.396ZM890 220.058L895.981 210.387L884.018 210.477L890 220.058ZM760.485 113.857L760.47 114.82L864.471 115.486L864.486 114.523L864.501 113.56L760.5 112.894L760.485 113.857ZM890 138.396L888.964 138.403L888.964 211.402L890 211.395L891.036 211.387L891.036 138.388L890 138.396ZM864.486 114.523L864.471 115.486C878.056 115.573 888.964 125.778 888.964 138.403L890 138.396L891.036 138.388C891.036 124.711 879.22 113.655 864.501 113.56L864.486 114.523ZM745 99.3679L743.964 99.3756C743.964 107.883 751.314 114.761 760.47 114.82L760.485 113.857L760.5 112.894C752.477 112.843 746.036 106.816 746.036 99.3601L745 99.3679Z" fill="#F1F1F1"/>
<path d="M1180 140.263L1178.99 140.297V140.297L1180 140.263ZM1180 220.058L1185.84 209.982L1174.16 210.371L1180 220.058ZM759.713 113.852L759.754 112.863L759.754 112.863L759.713 113.852ZM1155.75 116.388L1155.71 117.377L1155.75 116.388ZM1180 140.263L1178.99 140.297L1178.99 211.198L1180 211.165L1181.01 211.131L1181.01 140.23L1180 140.263ZM759.713 113.852L759.672 114.841L1155.71 117.377L1155.75 116.388L1155.79 115.399L759.754 112.863L759.713 113.852ZM745 99.3677L743.989 99.4014C743.989 107.972 750.909 114.785 759.672 114.841L759.713 113.852L759.754 112.863C752.076 112.814 746.011 106.844 746.011 99.334L745 99.3677ZM1180 140.263L1181.01 140.23C1181.01 126.446 1169.88 115.489 1155.79 115.399L1155.75 116.388L1155.71 117.377C1168.72 117.46 1178.99 127.574 1178.99 140.297L1180 140.263Z" fill="#F1F1F1"/>
<path d="M1470 142.079L1471 142.055L1471 142.055L1470 142.079ZM1470 220.058L1475.8 209.967L1464.2 210.245L1470 220.058ZM759.518 113.842L759.488 114.837L759.488 114.837L759.518 113.842ZM1445.64 117.795L1445.61 118.791L1445.61 118.791L1445.64 117.795ZM1470 142.079L1469 142.104L1469 211.126L1470 211.101L1471 211.077L1471 142.055L1470 142.079ZM759.518 113.842L759.488 114.837L1445.61 118.791L1445.64 117.795L1445.67 116.8L759.548 112.846L759.518 113.842ZM745 99.3679L743.996 99.392C743.996 107.946 750.857 114.787 759.488 114.837L759.518 113.842L759.548 112.846C752.003 112.803 746.005 106.822 746.005 99.3438L745 99.3679ZM1470 142.079L1471 142.055C1471 128.067 1459.78 116.881 1445.67 116.8L1445.64 117.795L1445.61 118.791C1458.64 118.866 1469 129.192 1469 142.104L1470 142.079Z" fill="#F1F1F1"/>
</svg>
