<svg width="1367" height="259" viewBox="0 0 1367 259" fill="none" xmlns="http://www.w3.org/2000/svg">
<path d="M668.537 108.859L668.506 107.864L668.537 108.859ZM42.8605 113.227L42.8919 114.222L42.8605 113.227ZM19.054 164.229L20.0585 164.253L20.0585 164.243L20.0583 164.234L19.054 164.229ZM19.0541 215.058L24.8534 205.245L13.2546 204.967L19.0541 215.058ZM18.5379 137.996L19.5422 138L19.5422 138L18.5379 137.996ZM18.554 138.814L17.5497 138.81L17.5497 138.81L18.554 138.814ZM668.537 108.859L668.506 107.864L42.8291 112.231L42.8605 113.227L42.8919 114.222L668.568 109.855L668.537 108.859ZM19.054 164.229L18.0496 164.205L18.0496 206.077L19.054 206.101L20.0585 206.125L20.0585 164.253L19.054 164.229ZM18.5379 137.996L17.5336 137.991L17.5497 138.81L18.554 138.814L19.5583 138.819L19.5422 138L18.5379 137.996ZM18.554 138.814L17.5497 138.81L18.0497 164.224L19.054 164.229L20.0583 164.234L19.5583 138.819L18.554 138.814ZM683.054 94.3678L682.05 94.3437C682.05 101.825 676.053 107.811 668.506 107.864L668.537 108.859L668.568 109.855C677.201 109.794 684.059 102.949 684.059 94.3919L683.054 94.3678ZM42.8605 113.227L42.8291 112.231C28.532 112.331 17.2547 123.815 17.5336 137.991L18.5379 137.996L19.5422 138C19.2848 124.915 29.6946 114.314 42.8919 114.222L42.8605 113.227Z" fill="#EEEEEE"/>
<path d="M667.569 108.823L667.556 107.861L667.569 108.823ZM487.629 109.579L487.642 110.542L487.629 109.579ZM462.054 133.452L463.09 133.46L462.054 133.452ZM462.054 162.373L463.09 162.38L462.054 162.373ZM462.054 215.059L468.036 205.477L456.073 205.388L462.054 215.059ZM667.569 108.823L667.556 107.861L487.616 108.617L487.629 109.579L487.642 110.542L667.582 109.786L667.569 108.823ZM462.054 133.452L461.018 133.445L461.018 162.365L462.054 162.373L463.09 162.38L463.09 133.46L462.054 133.452ZM462.054 162.373L461.018 162.365L461.018 206.387L462.054 206.395L463.09 206.403L463.09 162.38L462.054 162.373ZM683.054 94.3681L682.018 94.3604C682.018 101.81 675.572 107.827 667.556 107.861L667.569 108.823L667.582 109.786C676.732 109.747 684.09 102.879 684.09 94.3758L683.054 94.3681ZM487.629 109.579L487.616 108.617C472.873 108.679 461.018 119.744 461.018 133.445L462.054 133.452L463.09 133.46C463.09 120.814 474.033 110.599 487.642 110.542L487.629 109.579Z" fill="#EEEEEE"/>
<path d="M698.554 108.823L698.567 107.861L698.554 108.823ZM878.493 109.579L878.506 108.617L878.493 109.579ZM904.068 133.453L905.104 133.445L904.068 133.453ZM904.068 162.373L905.104 162.365L905.104 162.365L904.068 162.373ZM904.068 215.059L910.05 205.388L898.087 205.477L904.068 215.059ZM698.554 108.823L698.541 109.786L878.48 110.542L878.493 109.579L878.506 108.617L698.567 107.861L698.554 108.823ZM904.068 133.453L903.032 133.46L903.032 162.381L904.068 162.373L905.104 162.365L905.104 133.445L904.068 133.453ZM904.068 162.373L903.032 162.381L903.032 206.403L904.068 206.395L905.104 206.388L905.104 162.365L904.068 162.373ZM878.493 109.579L878.48 110.542C892.089 110.599 903.032 120.814 903.032 133.46L904.068 133.453L905.104 133.445C905.104 119.745 893.249 108.679 878.506 108.617L878.493 109.579ZM683.068 94.3682L682.032 94.3759C682.032 102.879 689.39 109.747 698.541 109.786L698.554 108.823L698.567 107.861C690.55 107.827 684.104 101.81 684.104 94.3605L683.068 94.3682Z" fill="#EEEEEE"/>
<path d="M1347.05 137.067L1346.04 137.091L1346.04 137.091L1347.05 137.067ZM1347.05 215.058L1352.85 204.967L1341.25 205.246L1347.05 215.058ZM697.566 108.85L697.535 109.845L697.566 108.85ZM1322.7 112.783L1322.67 113.778L1322.7 112.783ZM1347.05 137.067L1346.04 137.091L1346.04 206.126L1347.05 206.102L1348.05 206.078L1348.05 137.043L1347.05 137.067ZM697.566 108.85L697.535 109.845L1322.67 113.778L1322.7 112.783L1322.73 111.787L697.596 107.854L697.566 108.85ZM683.048 94.3682L682.044 94.3923C682.044 102.948 688.904 109.791 697.535 109.845L697.566 108.85L697.596 107.854C690.05 107.807 684.053 101.824 684.053 94.3441L683.048 94.3682ZM1347.05 137.067L1348.05 137.043C1348.05 123.06 1336.84 111.876 1322.73 111.787L1322.7 112.783L1322.67 113.778C1335.69 113.86 1346.04 124.184 1346.04 137.091L1347.05 137.067Z" fill="#EEEEEE"/>
</svg>
